<svg width="80" height="80" viewBox="0 0 80 80" fill="none" xmlns="http://www.w3.org/2000/svg">
<g clip-path="url(#clip0_61_106)" filter="url(#filter0_d_61_106)">
<path d="M17.7778 42.2222V24.4445H11.1111C9.34301 24.4445 7.64732 25.1468 6.39708 26.3971C5.14684 27.6473 4.44446 29.343 4.44446 31.1111V71.1111C4.44777 71.5238 4.56594 71.9275 4.78574 72.2768C5.00554 72.6261 5.31827 72.9073 5.6889 73.0889C6.04597 73.2513 6.43965 73.3163 6.82996 73.2772C7.22026 73.2382 7.59329 73.0966 7.91112 72.8667L19.3556 64.4445H49.2222C50.0645 64.4694 50.9029 64.3211 51.6855 64.0088C52.4681 63.6965 53.1782 63.2269 53.7719 62.629C54.3657 62.0311 54.8303 61.3177 55.1371 60.5329C55.4439 59.7481 55.5864 58.9087 55.5556 58.0667V55.5556H31.1111C27.5749 55.5556 24.1835 54.1508 21.683 51.6503C19.1825 49.1498 17.7778 45.7585 17.7778 42.2222Z" fill="#F72585"/>
<path d="M68.8889 8.88892H31.1111C29.343 8.88892 27.6473 9.5913 26.3971 10.8415C25.1468 12.0918 24.4445 13.7875 24.4445 15.5556V42.2222C24.4445 43.9904 25.1468 45.6861 26.3971 46.9363C27.6473 48.1865 29.343 48.8889 31.1111 48.8889H61.2222L71.8445 57.1334C72.1602 57.3668 72.5322 57.5124 72.9226 57.5554C73.3129 57.5983 73.7077 57.537 74.0667 57.3778C74.4448 57.1977 74.7644 56.9144 74.9885 56.5605C75.2126 56.2067 75.3322 55.7967 75.3334 55.3778V15.5556C75.3343 13.8253 74.6625 12.1624 73.4599 10.9184C72.2574 9.67435 70.6182 8.94659 68.8889 8.88892Z" fill="#4CC9F0"/>
</g>
<defs>
<filter id="filter0_d_61_106" x="-4" y="-4" width="88" height="88" filterUnits="userSpaceOnUse" color-interpolation-filters="sRGB">
<feFlood flood-opacity="0" result="BackgroundImageFix"/>
<feColorMatrix in="SourceAlpha" type="matrix" values="0 0 0 0 0 0 0 0 0 0 0 0 0 0 0 0 0 0 127 0" result="hardAlpha"/>
<feOffset/>
<feGaussianBlur stdDeviation="2"/>
<feComposite in2="hardAlpha" operator="out"/>
<feColorMatrix type="matrix" values="0 0 0 0 0.282353 0 0 0 0 0.584314 0 0 0 0 0.937255 0 0 0 1 0"/>
<feBlend mode="normal" in2="BackgroundImageFix" result="effect1_dropShadow_61_106"/>
<feBlend mode="normal" in="SourceGraphic" in2="effect1_dropShadow_61_106" result="shape"/>
</filter>
<clipPath id="clip0_61_106">
<rect width="80" height="80" fill="white"/>
</clipPath>
</defs>
</svg>
