<svg width="38" height="38" viewBox="0 0 38 38" fill="none" xmlns="http://www.w3.org/2000/svg">
<path d="M32.2375 5.71667C28.5917 2.08958 24.1375 0.25 19 0.25C13.8146 0.25 9.34792 2.09167 5.72292 5.71875C2.09167 9.34583 0.25 13.8167 0.25 19C0.25 24.1354 2.08958 28.5896 5.71667 32.2375C9.34375 35.8958 13.8125 37.75 19 37.75C24.1396 37.75 28.5938 35.8958 32.2417 32.2437C35.8979 28.5917 37.75 24.1354 37.75 19C37.75 13.8167 35.8958 9.34583 32.2375 5.71667ZM29.2958 29.2979C26.9271 31.6708 24.2208 33.0229 21.0833 33.4333V23.1667H25.25V19H21.0833V16.0833C21.0833 15.919 21.1157 15.7563 21.1787 15.6045C21.2416 15.4527 21.3339 15.3148 21.4502 15.1987C21.5665 15.0826 21.7045 14.9906 21.8564 14.9279C22.0083 14.8652 22.1711 14.8331 22.3354 14.8333H25.25V10.6667H22.3396C20.7937 10.6667 19.5042 11.2354 18.4708 12.3792C17.4375 13.5187 16.9167 14.9104 16.9167 16.5625V19H12.75V23.1667H16.9167V33.4375C13.7458 33.0312 11.0292 31.6771 8.67292 29.3042C5.80833 26.4208 4.41667 23.05 4.41667 19C4.41667 14.9042 5.80625 11.525 8.67083 8.66667C11.525 5.80625 14.9042 4.41667 19 4.41667C23.0521 4.41667 26.4208 5.80833 29.3021 8.67292C32.1833 11.5312 33.5833 14.9104 33.5833 19C33.5833 23.0437 32.1812 26.4146 29.2958 29.2979Z" fill="#20153A"/>
</svg>
