<svg width="85" height="68" viewBox="0 0 85 68" fill="none" xmlns="http://www.w3.org/2000/svg">
<path d="M27.6251 46.75C27.3076 46.75 26.9902 46.7965 26.6874 46.8948C24.9662 47.4539 23.1559 47.8125 21.2501 47.8125C19.3442 47.8125 17.534 47.4539 15.8114 46.8948C15.5086 46.7965 15.1925 46.75 14.8751 46.75C6.63271 46.75 -0.04377 53.4544 5.81532e-05 61.7073C0.0186519 65.195 2.88607 68 6.37506 68H36.1251C39.614 68 42.4815 65.195 42.5001 61.7073C42.5439 53.4544 35.8674 46.75 27.6251 46.75ZM21.2501 42.5C28.2918 42.5 34.0001 36.7917 34.0001 29.75C34.0001 22.7083 28.2918 17 21.2501 17C14.2083 17 8.50006 22.7083 8.50006 29.75C8.50006 36.7917 14.2083 42.5 21.2501 42.5ZM78.6251 0H27.6251C24.1095 0 21.2501 2.95508 21.2501 6.58617V12.75C24.3605 12.75 27.2399 13.6505 29.7501 15.1141V8.5H76.5001V46.75H68.0001V38.25H51.0001V46.75H40.8744C43.4112 48.9666 45.2732 51.8938 46.1458 55.25H78.6251C82.1406 55.25 85.0001 52.2949 85.0001 48.6638V6.58617C85.0001 2.95508 82.1406 0 78.6251 0Z" fill="#F72585"/>
</svg>
