<svg width="100" height="100" viewBox="0 0 100 100" fill="none" xmlns="http://www.w3.org/2000/svg">
<path d="M45.8333 77.0833C45.8333 75.4861 45.2958 73.9069 44.2208 72.3458C43.1431 70.7819 41.9444 69.15 40.625 67.45C39.3056 65.7472 38.1069 63.975 37.0292 62.1333C35.9542 60.2944 35.4167 58.3333 35.4167 56.25C35.4167 52.2222 36.8403 48.7847 39.6875 45.9375C42.5347 43.0903 45.9722 41.6667 50 41.6667C54.0278 41.6667 57.4653 43.0903 60.3125 45.9375C63.1597 48.7847 64.5833 52.2222 64.5833 56.25C64.5833 58.3333 64.0458 60.2944 62.9708 62.1333C61.8931 63.975 60.6944 65.7472 59.375 67.45C58.0556 69.15 56.8569 70.7819 55.7792 72.3458C54.7042 73.9069 54.1667 75.4861 54.1667 77.0833H45.8333ZM50 87.5C48.8194 87.5 47.8306 87.1 47.0333 86.3C46.2333 85.5028 45.8333 84.5139 45.8333 83.3333V81.25H54.1667V83.3333C54.1667 84.5139 53.7681 85.5028 52.9708 86.3C52.1708 87.1 51.1806 87.5 50 87.5ZM75 75C74.375 74.375 74.0111 73.5764 73.9083 72.6042C73.8028 71.6319 74.0278 70.7639 74.5833 70C76.0417 67.7083 77.1694 65.225 77.9667 62.55C78.7667 59.8778 79.1667 57.0833 79.1667 54.1667C79.1667 50.3472 78.4903 46.7528 77.1375 43.3833C75.7819 40.0167 73.8889 37.0139 71.4583 34.375C70.6944 33.4722 70.2958 32.4819 70.2625 31.4042C70.2264 30.3292 70.625 29.375 71.4583 28.5417C72.2917 27.7083 73.2986 27.2917 74.4792 27.2917C75.6597 27.2917 76.632 27.7083 77.3958 28.5417C80.5208 31.875 82.9861 35.7292 84.7917 40.1042C86.5972 44.4792 87.5 49.1667 87.5 54.1667C87.5 57.9167 86.9792 61.5097 85.9375 64.9458C84.8958 68.3847 83.4375 71.5625 81.5625 74.4792C80.7986 75.6597 79.7569 76.2847 78.4375 76.3542C77.1181 76.4236 75.9722 75.9722 75 75ZM18.4375 74.4792C16.5625 71.5625 15.1042 68.3847 14.0625 64.9458C13.0208 61.5097 12.5 57.9167 12.5 54.1667C12.5 43.75 16.1458 34.8958 23.4375 27.6042C30.7292 20.3125 39.5833 16.6667 50 16.6667H50.8333L47.0833 12.9167C46.3194 12.1528 45.9375 11.1806 45.9375 10C45.9375 8.81945 46.3194 7.84722 47.0833 7.08333C47.8472 6.31944 48.8194 5.9375 50 5.9375C51.1806 5.9375 52.1528 6.31944 52.9167 7.08333L63.75 17.9167C64.1667 18.3333 64.4625 18.7847 64.6375 19.2708C64.8097 19.7569 64.8958 20.2778 64.8958 20.8333C64.8958 21.3889 64.8097 21.9097 64.6375 22.3958C64.4625 22.8819 64.1667 23.3333 63.75 23.75L52.9167 34.5833C52.0833 35.4167 51.1111 35.8153 50 35.7792C48.8889 35.7458 47.9167 35.3125 47.0833 34.4792C46.25 33.6458 45.8333 32.6556 45.8333 31.5083C45.8333 30.3639 46.25 29.375 47.0833 28.5417L50.625 25H50C41.9444 25 35.0694 27.8472 29.375 33.5417C23.6806 39.2361 20.8333 46.1111 20.8333 54.1667C20.8333 57.0833 21.2319 59.8778 22.0292 62.55C22.8292 65.225 23.9583 67.7083 25.4167 70C25.9722 70.7639 26.1986 71.6319 26.0958 72.6042C25.9903 73.5764 25.625 74.375 25 75C24.0278 75.9722 22.8819 76.4236 21.5625 76.3542C20.2431 76.2847 19.2014 75.6597 18.4375 74.4792Z" fill="#4CC9F0"/>
</svg>
