<svg width="42" height="42" viewBox="0 0 42 42" fill="none" xmlns="http://www.w3.org/2000/svg">
<path d="M21 37.6667C25.4203 37.6667 29.6595 35.9108 32.7851 32.7852C35.9107 29.6596 37.6667 25.4204 37.6667 21.0001C37.6667 16.5798 35.9107 12.3406 32.7851 9.21497C29.6595 6.08936 25.4203 4.33341 21 4.33341C16.5797 4.33341 12.3405 6.08936 9.21491 9.21497C6.0893 12.3406 4.33335 16.5798 4.33335 21.0001C4.33335 25.4204 6.0893 29.6596 9.21491 32.7852C12.3405 35.9108 16.5797 37.6667 21 37.6667ZM21 41.8334C9.49377 41.8334 0.166687 32.5063 0.166687 21.0001C0.166687 9.49383 9.49377 0.166748 21 0.166748C32.5063 0.166748 41.8334 9.49383 41.8334 21.0001C41.8334 32.5063 32.5063 41.8334 21 41.8334Z" fill="#20153A"/>
<path d="M27.0896 13.7627H14.9105C12.5209 13.7627 10.5834 15.6794 10.5834 18.0419V24.0627C10.5834 26.4273 12.5209 28.3419 14.9105 28.3419H27.0896C29.4792 28.3419 31.4167 26.4252 31.4167 24.0627V18.0419C31.4167 15.6773 29.4792 13.7627 27.0896 13.7627ZM24.1646 21.346L18.4667 24.0335C18.4319 24.05 18.3934 24.0574 18.3549 24.0551C18.3164 24.0527 18.2792 24.0407 18.2466 24.0202C18.2139 23.9996 18.187 23.9712 18.1684 23.9374C18.1497 23.9037 18.1398 23.8658 18.1396 23.8273V18.2856C18.14 18.2466 18.1503 18.2082 18.1696 18.1743C18.1889 18.1404 18.2166 18.1119 18.25 18.0917C18.2834 18.0714 18.3214 18.0601 18.3604 18.0586C18.3994 18.0572 18.4382 18.0658 18.473 18.0835L24.1688 20.9377C24.2062 20.9573 24.2376 20.9868 24.2593 21.0231C24.281 21.0593 24.2922 21.1009 24.2918 21.1431C24.2914 21.1854 24.2793 21.2267 24.2568 21.2625C24.2344 21.2983 24.2025 21.3272 24.1646 21.346Z" fill="#20153A"/>
</svg>
